# xmcd
#
# Track frame offsets:
#	150
#	12840
#	22500
#	34682
#	48962
#	67920
#	78380
#	92840
#	102470
#	112522
#	128692
#	141035
#	151272
#	164630
#	179947
#	191837
#	207045
#	221020
#	234797
#	249907
#	260572
#	275305
#	289582
#	303102
#	316632
#	330115
#	342070
#
# Disc length: 4790 seconds
#
# Revision: 0
# Processed by: cddbd v1.5.1PL0 Copyright (c) Steve Scherf et al.
# Submitted via: audiograbber 1.83.01
#
DISCID=5a12b41b
DTITLE=Hank Snow - The Singing Ranger, Vol. 4 (4 of 9)
DYEAR=1900
DGENRE=Country
TTITLE0=Hello love
TTITLE1=One minute past eternity
TTITLE2=No one will ever know
TTITLE3=For the good times
TTITLE4=Sunday morning coming down
TTITLE5=Every time I love her
TTITLE6=The seashores of Old Mexico
TTITLE7=Gypsy feet
TTITLE8=Ribbon of darkness
TTITLE9=My way
TTITLE10=Bob
TTITLE11=Friend
TTITLE12=The govenor's hand
TTITLE13=Rolling thunder in my mind
TTITLE14=I'm not at all sorry for you
TTITLE15=My dreams tell it like it was
TTITLE16=It's over over nothing
TTITLE17=Until the end of time
TTITLE18=Four in the morning
TTITLE19=I've got to give it all to you
TTITLE20=A daisy a day
TTITLE21=Today I started loving you again
TTITLE22=I have you and that's enough for me
TTITLE23=I washed my hands in muddy water
TTITLE24=It just happened that way
TTITLE25=The last thing on my mind
TTITLE26=Nobody's child
EXTD=
EXTT0=
EXTT1=
EXTT2=
EXTT3=
EXTT4=
EXTT5=
EXTT6=
EXTT7=
EXTT8=
EXTT9=
EXTT10=
EXTT11=
EXTT12=
EXTT13=
EXTT14=
EXTT15=
EXTT16=
EXTT17=
EXTT18=
EXTT19=
EXTT20=
EXTT21=
EXTT22=
EXTT23=
EXTT24=
EXTT25=
EXTT26=
PLAYORDER=
